<?xml version="1.0" standalone="no"?>
<!DOCTYPE svg PUBLIC "-//W3C//DTD SVG 20010904//EN"
 "http://www.w3.org/TR/2001/REC-SVG-20010904/DTD/svg10.dtd">
<svg version="1.0" xmlns="http://www.w3.org/2000/svg"
 width="140.000000pt" height="82.000000pt" viewBox="0 0 140.000000 82.000000"
 preserveAspectRatio="xMidYMid meet">

<g transform="translate(0.000000,82.000000) scale(0.100000,-0.100000)"
fill="#000000" stroke="none">
<path d="M750 688 c0 -26 11 -44 52 -85 l52 -53 28 27 28 27 0 -72 0 -72 30 0
30 0 0 130 c0 123 -1 130 -20 130 -11 0 -37 -15 -58 -34 l-37 -34 -38 34 c-47
44 -67 44 -67 2z"/>
<path d="M760 512 c0 -51 1 -52 30 -52 25 0 30 4 30 23 0 13 -13 36 -30 52
l-30 29 0 -52z"/>
<path d="M780 289 c0 -52 3 -70 13 -67 6 3 13 22 15 44 l3 39 20 -25 20 -25
16 23 c22 31 28 28 28 -15 0 -20 6 -38 13 -40 9 -4 12 14 12 66 0 39 -4 71 -9
71 -5 0 -21 -14 -35 -31 l-26 -31 -26 31 c-14 17 -30 31 -35 31 -5 0 -9 -32
-9 -71z"/>
<path d="M950 290 c0 -56 3 -70 15 -70 12 0 15 14 15 70 0 56 -3 70 -15 70
-12 0 -15 -14 -15 -70z"/>
<path d="M1014 346 c-3 -7 -4 -38 -2 -67 2 -40 7 -54 18 -54 10 0 16 12 18 38
l3 38 30 -40 c16 -23 34 -41 39 -41 6 0 10 31 10 71 0 52 -3 70 -12 67 -7 -3
-14 -22 -16 -42 l-3 -38 -31 41 c-31 43 -45 50 -54 27z"/>
<path d="M1164 346 c-3 -7 -4 -38 -2 -67 l3 -54 44 1 c74 2 105 61 56 109 -27
28 -92 35 -101 11z m90 -38 c15 -25 -3 -52 -38 -56 -24 -3 -26 -1 -26 38 0 39
2 41 26 38 15 -2 32 -11 38 -20z"/>
<path d="M1011 154 c0 -11 3 -14 6 -6 3 7 2 16 -1 19 -3 4 -6 -2 -5 -13z"/>
</g>
</svg>
